# xmcd
#
# Track frame offsets: 
#        150
#        19575
#        38025
#        52401
#        68382
#        81033
#        100691
#        113715
#        133911
#        147767
#
# Disc length: 2227 seconds
#
# Revision: 1
# Processed by: cddbd v1.5.1PL0 Copyright (c) Steve Scherf et al.
# Submitted via: ExactAudioCopy v0.90b4
#
DISCID=7f08b10a
DTITLE=Kate Redgate - Rough Tracks
DYEAR=2003
DGENRE=Folk/Rock/Country
TTITLE0=Mississippi Moon
TTITLE1=Roxy's
TTITLE2=Dizzy with the View
TTITLE3=Walkin a Fine Line
TTITLE4=Another Place to Hide
TTITLE5=Bitterroot Valley Goodbye
TTITLE6=Missing a Train
TTITLE7=Hallowed Ground
TTITLE8=Love Remains
TTITLE9=Rollin and Tumblin
EXTD=
EXTT0=
EXTT1=
EXTT2=
EXTT3=
EXTT4=
EXTT5=
EXTT6=
EXTT7=
EXTT8=
EXTT9=
PLAYORDER=
